<?xml version="1.0" encoding="UTF-8"?>
<svg width="1280px" height="640px" viewBox="0 0 1280 640" version="1.1" xmlns="http://www.w3.org/2000/svg" xmlns:xlink="http://www.w3.org/1999/xlink">
    <!-- Generator: Sketch 48.2 (47327) - http://www.bohemiancoding.com/sketch -->
    <title>grand-bg</title>
    <desc>Created with Sketch.</desc>
    <defs></defs>
    <g id="Desktop" stroke="none" stroke-width="1" fill="none" fill-rule="evenodd" transform="translate(0.000000, -180.000000)">
        <g id="Section-1">
            <g id="Group-2" transform="translate(-762.000000, 78.000000)">
                <g id="Group-5">
                    <path d="M2575.77586,552.977011 C2533.02222,598.73578 2338.28893,649.282555 1991.57597,704.617337 C1644.86301,759.95212 1309.13654,799.078323 984.396552,821.995948 L2575.77586,897.804598 L2575.77586,552.977011 Z" id="Line" fill="#A424FF" opacity="0.129999995"></path>
                    <path d="M2575.77586,495.505747 C2533.02222,541.264515 2338.28893,591.81129 1991.57597,647.146073 C1644.86301,702.480855 1309.13654,741.607059 984.396552,764.524683 L2575.77586,840.333333 L2575.77586,495.505747 Z" id="Line" fill="#9124FF" opacity="0.0900000036" transform="translate(1780.086207, 667.919540) rotate(3.000000) translate(-1780.086207, -667.919540) "></path>
                    <path d="M2899.33908,314.126437 C2842.33423,390.39105 2582.68983,474.635676 2120.40589,566.860313 C1658.12195,659.08495 1210.48665,724.295289 777.5,762.49133 L2899.33908,888.83908 L2899.33908,314.126437 Z" id="Line" fill="#7F24FF" opacity="0.0599999987" transform="translate(1838.419540, 601.482759) rotate(-4.000000) translate(-1838.419540, -601.482759) "></path>
                    <path d="M3041.17816,134.701149 C2961.37137,241.471608 2597.86922,359.414084 1950.6717,488.528576 C1303.47418,617.643068 676.784759,708.937543 70.6034483,762.412 L3041.17816,939.298851 L3041.17816,134.701149 Z" id="Line" fill="#6D24FF" opacity="0.0299999993" transform="translate(1555.890805, 537.000000) rotate(-8.000000) translate(-1555.890805, -537.000000) "></path>
                </g>
            </g>
        </g>
    </g>
</svg>